# xmcd
#
# Track frame offsets: 
#        151
#        13129
#        25466
#        38719
#        54943
#        68748
#        82434
#        97191
#        112194
#        127408
#        148375
#        165833
#        189194
#        204039
#        216907
#        229659
#        243763
#        258600
#        277096
#        287446
#
# Disc length: 4015 seconds
#
# Revision: 0
# Processed by: cddbd v1.5.2PL0 Copyright (c) Steve Scherf et al.
# Submitted via: ExactAudioCopy v0.99pb5
#
DISCID=2e0fad14
DTITLE=Various Artist - Boleros de Oro, Vol 2
DYEAR=2006
DGENRE=Blues
TTITLE0=Nosotros
TTITLE1=Toda una vida
TTITLE2=Aquellos ojos verdes
TTITLE3=Aquella tarde
TTITLE4=Por eso no debes
TTITLE5=Quiero hablar contigo
TTITLE6=Ya que te vas
TTITLE7=Flores negras
TTITLE8=Como mi vida gris
TTITLE9=Si me pudieras querer
TTITLE10=Dulce desengaño
TTITLE11=Flor de ausencia
TTITLE12=Muy junto al corazon
TTITLE13=Alma de mujer
TTITLE14=Convergencia
TTITLE15=A mi manera
TTITLE16=Hasta mañana vida mia
TTITLE17=Vuelveme a querer
TTITLE18=Quiereme mucho
TTITLE19=Como arrullo de palmas
EXTD=
EXTT0=
EXTT1=
EXTT2=
EXTT3=
EXTT4=
EXTT5=
EXTT6=
EXTT7=
EXTT8=
EXTT9=
EXTT10=
EXTT11=
EXTT12=
EXTT13=
EXTT14=
EXTT15=
EXTT16=
EXTT17=
EXTT18=
EXTT19=
PLAYORDER=
